<?xml version="1.0" encoding="UTF-8" standalone="no"?><svg xmlns="http://www.w3.org/2000/svg" xmlns:xlink="http://www.w3.org/1999/xlink" contentStyleType="text/css" height="170px" preserveAspectRatio="none" style="width:500px;height:170px;background:#FFFFFF;" version="1.1" viewBox="0 0 500 170" width="500px" zoomAndPan="magnify"><defs/><g><!--MD5=[34065ec3c77f0d28fa984cfd25396293]
class TcpServerBase--><g id="elem_TcpServerBase"><rect fill="#F1F1F1" height="48" id="TcpServerBase" rx="2.5" ry="2.5" style="stroke:#181818;stroke-width:0.5;" width="140" x="170" y="7"/><ellipse cx="185" cy="23" fill="#ADD1B2" rx="11" ry="11" style="stroke:#181818;stroke-width:1.0;"/><path d="M187.3438,18.6719 C186.4063,18.2344 185.8125,18.0938 184.9375,18.0938 C182.3125,18.0938 180.3125,20.1719 180.3125,22.8906 L180.3125,24.0156 C180.3125,26.5938 182.4219,28.4844 185.3125,28.4844 C186.5313,28.4844 187.6875,28.1875 188.4375,27.6406 C189.0156,27.2344 189.3438,26.7813 189.3438,26.3906 C189.3438,25.9375 188.9531,25.5469 188.4844,25.5469 C188.2656,25.5469 188.0625,25.625 187.875,25.8125 C187.4219,26.2969 187.4219,26.2969 187.2344,26.3906 C186.8125,26.6563 186.125,26.7813 185.3594,26.7813 C183.3125,26.7813 182.0156,25.6875 182.0156,23.9844 L182.0156,22.8906 C182.0156,21.1094 183.2656,19.7969 185,19.7969 C185.5781,19.7969 186.1875,19.9531 186.6563,20.2031 C187.1406,20.4844 187.3125,20.7031 187.4063,21.1094 C187.4688,21.5156 187.5,21.6406 187.6406,21.7656 C187.7813,21.9063 188.0156,22.0156 188.2344,22.0156 C188.5,22.0156 188.7656,21.875 188.9375,21.6563 C189.0469,21.5 189.0781,21.3125 189.0781,20.8906 L189.0781,19.4688 C189.0781,19.0313 189.0625,18.9063 188.9688,18.75 C188.8125,18.4844 188.5313,18.3438 188.2344,18.3438 C187.9375,18.3438 187.7344,18.4375 187.5156,18.75 L187.3438,18.6719 Z " fill="#000000"/><text fill="#000000" font-family="sans-serif" font-size="14" lengthAdjust="spacing" textLength="108" x="199" y="27.8467">TcpServerBase</text><line style="stroke:#181818;stroke-width:0.5;" x1="171" x2="309" y1="39" y2="39"/><line style="stroke:#181818;stroke-width:0.5;" x1="171" x2="309" y1="47" y2="47"/></g><!--MD5=[b2b8ac0e9a52584451f01cae17246d8c]
class TcpServerCmd--><g id="elem_TcpServerCmd"><rect fill="#F1F1F1" height="48" id="TcpServerCmd" rx="2.5" ry="2.5" style="stroke:#181818;stroke-width:0.5;" width="139" x="170.5" y="115"/><ellipse cx="185.5" cy="131" fill="#ADD1B2" rx="11" ry="11" style="stroke:#181818;stroke-width:1.0;"/><path d="M187.8438,126.6719 C186.9063,126.2344 186.3125,126.0938 185.4375,126.0938 C182.8125,126.0938 180.8125,128.1719 180.8125,130.8906 L180.8125,132.0156 C180.8125,134.5938 182.9219,136.4844 185.8125,136.4844 C187.0313,136.4844 188.1875,136.1875 188.9375,135.6406 C189.5156,135.2344 189.8438,134.7813 189.8438,134.3906 C189.8438,133.9375 189.4531,133.5469 188.9844,133.5469 C188.7656,133.5469 188.5625,133.625 188.375,133.8125 C187.9219,134.2969 187.9219,134.2969 187.7344,134.3906 C187.3125,134.6563 186.625,134.7813 185.8594,134.7813 C183.8125,134.7813 182.5156,133.6875 182.5156,131.9844 L182.5156,130.8906 C182.5156,129.1094 183.7656,127.7969 185.5,127.7969 C186.0781,127.7969 186.6875,127.9531 187.1563,128.2031 C187.6406,128.4844 187.8125,128.7031 187.9063,129.1094 C187.9688,129.5156 188,129.6406 188.1406,129.7656 C188.2813,129.9063 188.5156,130.0156 188.7344,130.0156 C189,130.0156 189.2656,129.875 189.4375,129.6563 C189.5469,129.5 189.5781,129.3125 189.5781,128.8906 L189.5781,127.4688 C189.5781,127.0313 189.5625,126.9063 189.4688,126.75 C189.3125,126.4844 189.0313,126.3438 188.7344,126.3438 C188.4375,126.3438 188.2344,126.4375 188.0156,126.75 L187.8438,126.6719 Z " fill="#000000"/><text fill="#000000" font-family="sans-serif" font-size="14" lengthAdjust="spacing" textLength="107" x="199.5" y="135.8467">TcpServerCmd</text><line style="stroke:#181818;stroke-width:0.5;" x1="171.5" x2="308.5" y1="147" y2="147"/><line style="stroke:#181818;stroke-width:0.5;" x1="171.5" x2="308.5" y1="155" y2="155"/></g><!--MD5=[448624d6d9ebec817538c0f69127e753]
class TcpServerTel--><g id="elem_TcpServerTel"><rect fill="#F1F1F1" height="48" id="TcpServerTel" rx="2.5" ry="2.5" style="stroke:#181818;stroke-width:0.5;" width="128" x="7" y="115"/><ellipse cx="22" cy="131" fill="#ADD1B2" rx="11" ry="11" style="stroke:#181818;stroke-width:1.0;"/><path d="M24.3438,126.6719 C23.4063,126.2344 22.8125,126.0938 21.9375,126.0938 C19.3125,126.0938 17.3125,128.1719 17.3125,130.8906 L17.3125,132.0156 C17.3125,134.5938 19.4219,136.4844 22.3125,136.4844 C23.5313,136.4844 24.6875,136.1875 25.4375,135.6406 C26.0156,135.2344 26.3438,134.7813 26.3438,134.3906 C26.3438,133.9375 25.9531,133.5469 25.4844,133.5469 C25.2656,133.5469 25.0625,133.625 24.875,133.8125 C24.4219,134.2969 24.4219,134.2969 24.2344,134.3906 C23.8125,134.6563 23.125,134.7813 22.3594,134.7813 C20.3125,134.7813 19.0156,133.6875 19.0156,131.9844 L19.0156,130.8906 C19.0156,129.1094 20.2656,127.7969 22,127.7969 C22.5781,127.7969 23.1875,127.9531 23.6563,128.2031 C24.1406,128.4844 24.3125,128.7031 24.4063,129.1094 C24.4688,129.5156 24.5,129.6406 24.6406,129.7656 C24.7813,129.9063 25.0156,130.0156 25.2344,130.0156 C25.5,130.0156 25.7656,129.875 25.9375,129.6563 C26.0469,129.5 26.0781,129.3125 26.0781,128.8906 L26.0781,127.4688 C26.0781,127.0313 26.0625,126.9063 25.9688,126.75 C25.8125,126.4844 25.5313,126.3438 25.2344,126.3438 C24.9375,126.3438 24.7344,126.4375 24.5156,126.75 L24.3438,126.6719 Z " fill="#000000"/><text fill="#000000" font-family="sans-serif" font-size="14" lengthAdjust="spacing" textLength="96" x="36" y="135.8467">TcpServerTel</text><line style="stroke:#181818;stroke-width:0.5;" x1="8" x2="134" y1="147" y2="147"/><line style="stroke:#181818;stroke-width:0.5;" x1="8" x2="134" y1="155" y2="155"/></g><!--MD5=[93bde718e63cc785553ecd8131004543]
class TcpServerEvent--><g id="elem_TcpServerEvent"><rect fill="#F1F1F1" height="48" id="TcpServerEvent" rx="2.5" ry="2.5" style="stroke:#181818;stroke-width:0.5;" width="148" x="345" y="115"/><ellipse cx="360" cy="131" fill="#ADD1B2" rx="11" ry="11" style="stroke:#181818;stroke-width:1.0;"/><path d="M362.3438,126.6719 C361.4063,126.2344 360.8125,126.0938 359.9375,126.0938 C357.3125,126.0938 355.3125,128.1719 355.3125,130.8906 L355.3125,132.0156 C355.3125,134.5938 357.4219,136.4844 360.3125,136.4844 C361.5313,136.4844 362.6875,136.1875 363.4375,135.6406 C364.0156,135.2344 364.3438,134.7813 364.3438,134.3906 C364.3438,133.9375 363.9531,133.5469 363.4844,133.5469 C363.2656,133.5469 363.0625,133.625 362.875,133.8125 C362.4219,134.2969 362.4219,134.2969 362.2344,134.3906 C361.8125,134.6563 361.125,134.7813 360.3594,134.7813 C358.3125,134.7813 357.0156,133.6875 357.0156,131.9844 L357.0156,130.8906 C357.0156,129.1094 358.2656,127.7969 360,127.7969 C360.5781,127.7969 361.1875,127.9531 361.6563,128.2031 C362.1406,128.4844 362.3125,128.7031 362.4063,129.1094 C362.4688,129.5156 362.5,129.6406 362.6406,129.7656 C362.7813,129.9063 363.0156,130.0156 363.2344,130.0156 C363.5,130.0156 363.7656,129.875 363.9375,129.6563 C364.0469,129.5 364.0781,129.3125 364.0781,128.8906 L364.0781,127.4688 C364.0781,127.0313 364.0625,126.9063 363.9688,126.75 C363.8125,126.4844 363.5313,126.3438 363.2344,126.3438 C362.9375,126.3438 362.7344,126.4375 362.5156,126.75 L362.3438,126.6719 Z " fill="#000000"/><text fill="#000000" font-family="sans-serif" font-size="14" lengthAdjust="spacing" textLength="116" x="374" y="135.8467">TcpServerEvent</text><line style="stroke:#181818;stroke-width:0.5;" x1="346" x2="492" y1="147" y2="147"/><line style="stroke:#181818;stroke-width:0.5;" x1="346" x2="492" y1="155" y2="155"/></g><!--MD5=[7128b0f21a8be2dbb334d2a4e9bf37c9]
class TcpServer--><g id="elem_TcpServer"><rect fill="#F1F1F1" height="48" id="TcpServer" rx="2.5" ry="2.5" style="stroke:#181818;stroke-width:0.5;" width="106" x="24" y="7"/><ellipse cx="39" cy="23" fill="#ADD1B2" rx="11" ry="11" style="stroke:#181818;stroke-width:1.0;"/><path d="M41.3438,18.6719 C40.4063,18.2344 39.8125,18.0938 38.9375,18.0938 C36.3125,18.0938 34.3125,20.1719 34.3125,22.8906 L34.3125,24.0156 C34.3125,26.5938 36.4219,28.4844 39.3125,28.4844 C40.5313,28.4844 41.6875,28.1875 42.4375,27.6406 C43.0156,27.2344 43.3438,26.7813 43.3438,26.3906 C43.3438,25.9375 42.9531,25.5469 42.4844,25.5469 C42.2656,25.5469 42.0625,25.625 41.875,25.8125 C41.4219,26.2969 41.4219,26.2969 41.2344,26.3906 C40.8125,26.6563 40.125,26.7813 39.3594,26.7813 C37.3125,26.7813 36.0156,25.6875 36.0156,23.9844 L36.0156,22.8906 C36.0156,21.1094 37.2656,19.7969 39,19.7969 C39.5781,19.7969 40.1875,19.9531 40.6563,20.2031 C41.1406,20.4844 41.3125,20.7031 41.4063,21.1094 C41.4688,21.5156 41.5,21.6406 41.6406,21.7656 C41.7813,21.9063 42.0156,22.0156 42.2344,22.0156 C42.5,22.0156 42.7656,21.875 42.9375,21.6563 C43.0469,21.5 43.0781,21.3125 43.0781,20.8906 L43.0781,19.4688 C43.0781,19.0313 43.0625,18.9063 42.9688,18.75 C42.8125,18.4844 42.5313,18.3438 42.2344,18.3438 C41.9375,18.3438 41.7344,18.4375 41.5156,18.75 L41.3438,18.6719 Z " fill="#000000"/><text fill="#000000" font-family="sans-serif" font-size="14" lengthAdjust="spacing" textLength="74" x="53" y="27.8467">TcpServer</text><line style="stroke:#181818;stroke-width:0.5;" x1="25" x2="129" y1="39" y2="39"/><line style="stroke:#181818;stroke-width:0.5;" x1="25" x2="129" y1="47" y2="47"/></g><!--MD5=[5b00579ce3b575c37bbf9da94417fbb2]
reverse link TcpServerBase to TcpServerCmd--><g id="link_TcpServerBase_TcpServerCmd"><path codeLine="1" d="M240,75.0236 C240,88.5792 240,103.0381 240,114.6784 " fill="none" id="TcpServerBase-backto-TcpServerCmd" style="stroke:#181818;stroke-width:1.0;"/><polygon fill="none" points="233,75.0005,240,55,247,75.0004,233,75.0005" style="stroke:#181818;stroke-width:1.0;"/></g><!--MD5=[9cafefb99aa6726e1c52c831d86e6f1a]
reverse link TcpServerBase to TcpServerTel--><g id="link_TcpServerBase_TcpServerTel"><path codeLine="2" d="M186.088,65.8147 C160.582,81.8126 130.777,100.5064 107.89,114.8617 " fill="none" id="TcpServerBase-backto-TcpServerTel" style="stroke:#181818;stroke-width:1.0;"/><polygon fill="none" points="182.667,59.697,203.33,55,190.106,71.5575,182.667,59.697" style="stroke:#181818;stroke-width:1.0;"/></g><!--MD5=[1095b2f0683541d60182e0c2365887a2]
reverse link TcpServerBase to TcpServerEvent--><g id="link_TcpServerBase_TcpServerEvent"><path codeLine="3" d="M296.32,65.3518 C323.507,81.451 355.451,100.3677 379.927,114.8617 " fill="none" id="TcpServerBase-backto-TcpServerEvent" style="stroke:#181818;stroke-width:1.0;"/><polygon fill="none" points="292.483,71.2144,278.84,55,299.616,59.168,292.483,71.2144" style="stroke:#181818;stroke-width:1.0;"/></g><!--MD5=[55d1d8dab2577dfcab13c74c694b3838]
reverse link TcpServer to TcpServerCmd--><g id="link_TcpServer_TcpServerCmd"><path codeLine="4" d="M123.373,62.157 C149.115,78.8968 180.639,99.3968 204.419,114.8617 " fill="none" id="TcpServer-backto-TcpServerCmd" style="stroke:#181818;stroke-width:1.0;"/><polygon fill="#181818" points="112.369,55,115.2184,61.6243,122.4291,61.5418,119.5796,54.9175,112.369,55" style="stroke:#181818;stroke-width:1.0;"/></g><!--MD5=[a9471d3b4fc8deb7516d6c15a44a35b5]
reverse link TcpServer to TcpServerTel--><g id="link_TcpServer_TcpServerTel"><path codeLine="5" d="M74.9431,68.3383 C74.0746,83.6813 73.0888,101.098 72.3201,114.6784 " fill="none" id="TcpServer-backto-TcpServerTel" style="stroke:#181818;stroke-width:1.0;"/><polygon fill="#181818" points="75.6981,55,71.3654,60.7643,75.0199,66.9808,79.3526,61.2165,75.6981,55" style="stroke:#181818;stroke-width:1.0;"/></g><!--MD5=[e5e8da8ac8ab8eeee3b42808876ed0ed]
@startuml
TcpServerBase <|- - TcpServerCmd
TcpServerBase <|- - TcpServerTel
TcpServerBase <|- - TcpServerEvent
TcpServer *- - TcpServerCmd
TcpServer *- - TcpServerTel
@enduml

PlantUML version 1.2022.14beta1(Unknown compile time)
(GPL source distribution)
Java Runtime: Java(TM) SE Runtime Environment
JVM: Java HotSpot(TM) 64-Bit Server VM
Default Encoding: UTF-8
Language: en
Country: US
--></g></svg>